<?xml version="1.0" encoding="utf-8"?>
<!-- Generator: Adobe Illustrator 17.1.0, SVG Export Plug-In . SVG Version: 6.00 Build 0)  -->
<!DOCTYPE svg PUBLIC "-//W3C//DTD SVG 1.1//EN" "http://www.w3.org/Graphics/SVG/1.1/DTD/svg11.dtd">
<svg version="1.1" id="Layer_1" xmlns="http://www.w3.org/2000/svg" xmlns:xlink="http://www.w3.org/1999/xlink" x="0px" y="0px"
	 width="78px" height="50px" viewBox="0 0 78 50" enable-background="new 0 0 78 50" xml:space="preserve">
<g>
	<path fill="#FFFFFF" d="M37.4,49.5c-0.7,0-1.4,0-2,0c-0.1,0-0.1,0-0.2,0c-0.6-0.1-1.3-0.1-1.9-0.2c-2.6-0.3-5.1-1.1-7.5-2.2
		c-3.1-1.5-5.7-3.5-7.9-6.1c-3.3-3.8-5.2-8.3-5.8-13.3c-0.3-2.3-0.2-4.6,0.2-7c0.4-2.5,1.2-4.9,2.4-7.1c2.8-5.1,6.8-8.9,12.2-11.2
		c2.3-1,4.7-1.6,7.2-1.8c0.4,0,0.9-0.1,1.3-0.1c0.7,0,1.4,0,2.1,0c0.1,0,0.1,0,0.2,0c0.7,0.1,1.5,0.1,2.2,0.2c2,0.3,4,0.8,5.9,1.6
		c4.1,1.7,7.5,4.4,10.2,7.9c2.8,3.7,4.4,7.9,4.8,12.6c0.2,2,0.1,4-0.2,5.9c-0.4,2.7-1.3,5.3-2.6,7.7c-2.1,3.8-4.9,6.9-8.6,9.3
		c-3.4,2.2-7.1,3.4-11.2,3.7C38,49.5,37.7,49.5,37.4,49.5z M22.1,27.1C22,27.1,22,27.1,22.1,27.1C22,27,22,26.9,22,26.8
		c0-1,0-2.1,0-3.1c0-0.3-0.1-0.4-0.4-0.4c-1.3,0-2.5,0-3.8,0c-0.2,0-0.4,0.1-0.5,0.3c-0.3,0.7-0.5,1.3-0.8,2
		c-0.2,0.6-0.5,1.2-0.7,1.8c-0.1,0.3,0,0.5,0.3,0.5c0.4,0,0.7,0,1.1,0c0.3,0,0.3,0,0.3,0.3c0,2.3,0,4.7,0,7c0,0.4,0.1,0.5,0.5,0.5
		c1.2,0,2.3,0,3.5,0c0.4,0,0.5-0.1,0.5-0.5c0-2.3,0-4.7,0-7c0-0.1,0-0.2,0-0.3c0,0,0,0,0.1,0c0.8,0,1.6,0,2.3,0
		c0.8,0.1,1,0.4,1.1,1.1c0,0.2,0.1,0.5,0.1,0.7c0,1.9,0,3.7,0,5.6c0,0.3,0.1,0.5,0.4,0.5c1.2,0,2.3,0,3.5,0c0.3,0,0.6-0.2,0.7-0.5
		c0.1-0.3,0.2-0.6,0.3-0.8c0.1-0.4,0.3-0.7,0.4-1.1c0.1,0.1,0.1,0.1,0.1,0.1c0.4,0.5,0.8,0.9,1.4,1.3c1.3,0.8,2.7,1.1,4.1,1
		c0.3,0,0.5-0.2,0.6-0.5c0.4-1,0.8-2.1,1.3-3.1c0-0.1,0-0.1,0.1-0.1c0,0.1,0,0.2,0,0.3c0,1,0,2,0,3.1c0,0.3,0.1,0.4,0.4,0.4
		c1.2,0,2.5,0,3.7,0c0.3,0,0.5-0.2,0.6-0.4c0.1-0.2,0.1-0.3,0.2-0.5c0.4-1,0.8-2.1,1.2-3.1c0.1-0.3,0-0.4-0.3-0.5
		c-0.2,0-0.4,0-0.7,0c-0.2,0-0.4,0-0.6,0c0-2.1,0-4.2,0-6.2c0.2,0.4,0.4,0.8,0.5,1.3c1.2,3,2.4,5.9,3.6,8.9c0.2,0.5,0.3,0.6,0.8,0.6
		c1.4,0,2.8,0,4.1,0c0.4,0,0.6-0.1,0.8-0.5c0.3-0.7,0.6-1.5,0.9-2.2c1.2-3.1,2.5-6.1,3.7-9.2c0.1-0.3,0-0.5-0.3-0.5
		c-1.4,0-2.8,0-4.2,0c-0.3,0-0.4,0.1-0.5,0.4c-0.6,2-1.3,4-1.9,6c-0.1,0.4-0.3,0.8-0.4,1.3c-0.1-0.3-0.2-0.4-0.2-0.6
		c-0.7-2.2-1.4-4.4-2.1-6.5c-0.1-0.4-0.2-0.5-0.6-0.5c-2.7,0-5.3,0-8,0c-0.5,0-0.6,0.1-0.6,0.6c0,0.6,0,1.1,0,1.7
		c-0.1-0.3-0.2-0.6-0.4-0.8c-0.7-1-1.8-1.4-3-1.4c-2.2,0-3.7,1.1-4.6,3c-0.2,0.4-0.3,0.9-0.5,1.3c0-0.3,0-0.6-0.1-0.9
		c-0.1-0.6-0.1-1.3-0.5-1.8c-0.6-0.9-1.5-1.4-2.6-1.5c-1-0.1-2-0.1-2.9-0.1c-0.2,0-0.4,0.1-0.5,0.3c-0.2,0.6-0.5,1.2-0.7,1.8
		C22.5,26,22.3,26.6,22.1,27.1z"/>
	<path fill="#FFFFFF" d="M69.5,23.3c-0.1,0-0.2,0-0.2,0c-0.7,0-1.5,0-2.2,0c-0.2,0-0.2,0.1-0.3,0.2c-0.5,1.2-1,2.4-1.5,3.7
		c-1,2.5-2,4.9-3,7.4c-0.1,0.4-0.3,0.7-0.4,1.1c0.1,0,0.2,0,0.3,0c0.7,0,1.4,0,2.1,0c0.2,0,0.3-0.1,0.4-0.3
		c1.4-3.4,2.7-6.8,4.1-10.3C69,24.6,69.2,24,69.5,23.3z"/>
	<path fill="#FFFFFF" d="M0,35.7c0.2-0.5,0.4-0.9,0.6-1.4c1.5-3.6,2.9-7.2,4.4-10.8c0-0.1,0.1-0.2,0.2-0.2c1.5,0,3,0,4.5,0
		c0,0,0.1,0,0.1,0c0,0.1-0.1,0.2-0.1,0.3c-1.4,3.5-2.8,7-4.2,10.5c-0.2,0.5-0.4,0.9-0.6,1.4c0,0.1-0.1,0.2-0.2,0.2
		C3.1,35.7,1.6,35.7,0,35.7C0,35.7,0,35.7,0,35.7z"/>
	<path fill="#FFFFFF" d="M78,23.4c-0.2,0.6-0.5,1.1-0.7,1.7c-1.4,3.5-2.8,7-4.2,10.5c-0.1,0.1-0.1,0.2-0.3,0.2c-0.4,0-0.8,0-1.2,0
		c0.2-0.4,0.3-0.7,0.4-1.1c1.5-3.7,2.9-7.4,4.4-11.1c0.1-0.2,0.2-0.3,0.4-0.3C77.3,23.3,77.6,23.3,78,23.4C78,23.3,78,23.3,78,23.4z
		"/>
	<path fill="#FFFFFF" d="M69.5,23.3c-0.3,0.7-0.5,1.3-0.8,1.9c-1.4,3.4-2.7,6.8-4.1,10.3c-0.1,0.2-0.2,0.3-0.4,0.3
		c-0.7,0-1.4,0-2.1,0c-0.1,0-0.2,0-0.3,0c0.2-0.4,0.3-0.8,0.4-1.1c1-2.5,2-4.9,3-7.4c0.5-1.2,1-2.4,1.5-3.7c0.1-0.1,0.1-0.2,0.3-0.2
		c0.7,0,1.5,0,2.2,0C69.3,23.3,69.4,23.3,69.5,23.3z"/>
	<path fill="#FFFFFF" d="M38.6,31.2c-0.9,0-1.8,0-2.7,0c-0.8,0-1.5-0.8-1.6-1.6c-0.1-0.9,0.5-1.7,1.4-1.9c0.6-0.1,1.1-0.1,1.7,0
		c0.8,0.2,1.3,0.9,1.3,1.7c0,0.5,0,1,0,1.6C38.6,31,38.6,31.1,38.6,31.2z"/>
</g>
</svg>
