<svg width="291" height="184" xmlns="http://www.w3.org/2000/svg" xmlns:xlink="http://www.w3.org/1999/xlink">
    <defs>
        <path d="M62.1264.2977c9.6301 4.8894 24.606 18.1345 24.606 30.4164v40.5877H0V30.7141C0 18.864 13.7025 6.117 23.2225.8438c-.4822.3042-.7363.4875-.7363.4875 1.6403 2.804 6.0492 15.2505 19.8785 15.2505C56.197 16.5818 62.64 3.2193 62.64.6073a42.5386 42.5386 0 0 0-.5136-.3096z"
              id="a"/>
        <path d="M66.0838 39.0016C59.8874 31.2953 55.55 20.496 55.55 20.496c-19.716-6.1686-44.4029.191-44.5668.796C8.7453 29.5218.4687 39.6972.4687 39.6972.5939 19.4886 10.9524-.0404 33.2524.0003c22.8739-.0844 32.2265 17.81 32.8314 39.0013z"
              id="c"/>
        <path d="M33.456 30.78c-7.6615 0-13.872-2.5387-13.872-5.67s6.2105-5.67 13.872-5.67 13.872 2.5387 13.872 5.67-6.2105 5.67-13.872 5.67m13.757-11.6786c-5.8428-2.1605-8.1756-2.8588-13.0158-2.8588-4.8402 0-8.1307.0287-14.4823 3.2399C5.0314 26.903 0 .6968 0 .6968 0 42.4759 20.9087 53.46 33.976 53.46c13.2735 0 34.568-9.5922 34.568-53.46 0 0-6.2801 24.6692-21.331 19.1014"
              id="e"/>
    </defs>
    <g fill="none" fill-rule="evenodd">
        <path d="M117.8049 113.49c1.644 2.6926 6.2616 50.0004 20.122 50.0004 13.8633 0 20.1219-48.1874 20.1219-50.6956-21.2248-12.453-40.244.6953-40.244.6953z"
              fill="#E7E5E2"/>
        <g transform="translate(95.2683 112.4093)">
            <mask id="b" fill="#fff">
                <use xlink:href="#a"/>
            </mask>
            <use fill="#D8A25D" xlink:href="#a"/>
            <g mask="url(#b)" fill="#6AB889">
                <path d="M-53.003 119.571h202.2675v-166H-53.0031z"/>
            </g>
        </g>
        <path d="M171.2724 88.1119c-4.0209 16.9871-17.064 29.4327-32.5343 29.4327-15.4715 0-28.5145-12.4477-32.5338-29.4372-.3915.1494-.8234.2322-1.2775.2322-1.7757 0-3.2195-1.2712-3.2195-2.8457V74.0108c0-1.5745 1.4438-2.8473 3.2195-2.8473.1188 0 .236.0056.3514.0167 2.3705-19.5905 16.447-34.6393 33.46-34.6393 17.0126 0 31.09 15.0482 33.4613 34.638a3.6759 3.6759 0 0 1 .337-.0154c1.7796 0 3.2196 1.2728 3.2196 2.8473v11.4831c0 1.5745-1.44 2.8457-3.2195 2.8457-.4486 0-.876-.0811-1.2642-.2277z"
              fill="#E7E5E2"/>
        <path d="M128.103 73.1131c-2.3388.13-2.9934-2.3863-2.2886-4.027.1325-.3128.9067-1.7297 2.2774-1.7297 1.369 0 1.9735.7751 2.0575.9084 1.007 1.6013.514 4.7084-2.0462 4.8483M152.5894 73.1131c2.3389.13 2.9935-2.3863 2.2904-4.027-.1342-.3128-.9084-1.7297-2.279-1.7297-1.369 0-1.9736.7751-2.0576.9084-1.007 1.6013-.5124 4.7084 2.0462 4.8483"
              fill="#635E59"/>
        <path d="M141.7732 77.4749c1.398-.2189 2.7606-.1662 3.4007.6336 1.5598 1.9518 1.112 4.2048-1.5145 5.8686-1.3125.8311-3.1712 1.1718-4.3107.6583"
              stroke="#D1BFA3" stroke-width="1.2" stroke-linecap="round"/>
        <path d="M130.9656 93.8942s1.1928 1.4005 4.5144 1.3742l3.3232-.0264" stroke="#593A32" stroke-width="1.2156"
              stroke-linecap="round"/>
        <g>
            <g transform="translate(104.8793 29.946)">
                <mask id="d" fill="#fff">
                    <use xlink:href="#c"/>
                </mask>
                <g mask="url(#d)" fill="#3E3832">
                    <path d="M-21.8717-47.9676H85.8681V82.7566H-21.8717z"/>
                </g>
            </g>
        </g>
        <g>
            <g transform="translate(104.7659 69.5148)">
                <mask id="f" fill="#fff">
                    <use xlink:href="#e"/>
                </mask>
                <g mask="url(#f)" fill="#3E3832">
                    <path d="M-21.216-38.88H91.5117V88.8505H-21.216z"/>
                </g>
            </g>
        </g>
        <path d="M135 181.2015h153" stroke="#585B5C" stroke-width="4.8" stroke-linecap="round" stroke-linejoin="round"/>
        <g fill="#D8D8D8" fill-rule="nonzero">
            <path d="M28.4708 83.5654c-2.2915-.4699-5.6343-1.602-7.5474-.2136-.3995.2777.2523-.5126.1261-.0427-1.3875 5.4893-6.0337 3.2893-7.6946 8.3728-2.8381-.1067-9.1662 4.2933-9.881 7.0913-.7148 2.798.7148 6.002 3.2586 7.3049-1.1563.5767-2.4387.9398-3.7211 1.068-1.0933 5.8951-4.499 9.3126-2.2706 14.866.3785.9612 4.8775 1.602 2.733 4.0583-.6727.7689-1.5767 1.4524-2.5227 1.068-1.0512.4912-.021 4.6349.7148 5.532 9.3764 11.5553 15.6835 4.2932 22.411 1.5165 6.7275-2.7767 5.0667-9.6758 6.7275-10.8932l.6307 4.0582c.1262.1709 3.1536-.2136 3.7843 2.136.2522.9611 2.649-3.204 2.9433-4.0583 1.0511-2.969.042-2.3282 1.4716-5.1262 2.9433-5.767.862-8.0738 3.3638-13.2428 2.2495-4.6563-3.511-13.7126-1.682-19.437.4626-1.431.3365-5.4252 1.5138-6.3436.7568-.5767 2.754-3.3748 3.532-3.9088 3.3637-2.3922 7.1479 1.2816 4.2046-5.767-2.3756-5.6815 2.1865-10.8505 3.7842-13.8835 2.0393-3.866 2.1865-6.536 3.574-10.6796.7359-2.2 1.0092-4.4855 1.8921-6.6214.883-2.136 2.691-4.1864 4.9616-4.4-.9881-1.6233.904-3.567 2.712-4.0796 1.808-.5126 3.9735-.598 5.0877-2.1146.6097-.833.7569-1.9223 1.1353-2.9048 1.2404-3.2253 5.424-4.8486 8.4724-3.2894 1.766.9185 1.3876 3.738 3.0485 4.8272 2.8591 1.8796 4.8143 1.4525 7.3582-.8543l4.2047.8543c.946-2.6272 1.6608-5.596 1.0511-8.33-.5045-2.2428-.862-5.105 1.4086-5.3185 3.4058-.3204 5.5292 5.3184 8.2623 5.3184 1.4716-3.8446 3.7842-5.5534 3.4478-6.2582-.6727-1.367-3.1325.7903-5.5502-.5767-.5676-.3204-.946-3.332-.3153-3.5457 2.733-.9184 6.0337-2.435 3.2376-4.7845-1.6399-1.367-3.2797-2.8194-5.403-2.734-1.1353.0428-2.4178.5127-2.7541 1.602-1.1143.1709-1.5768-1.9223-.4836-2.2427C99.278.3925 97.8274-.3124 96.65.1362c-1.1773.4485-1.808 1.965-1.3245 3.1398-1.4506-.7263-2.9853-1.4525-4.6041-1.4525-1.6188 0-3.3638 1.004-3.6791 2.6272-.7148-.299-1.4927-.598-2.2285-.4058-.7569.1922-1.3455 1.1107-.946 1.7728-2.0183-1.2815-5.1508.2777-5.361 2.6913.6517.9398 2.2074.5767 2.9642.9398.5887 1.0893-1.2403 1.602-2.3546 2.0932-3.0904 1.3456-6.4121 2.734-9.7339 2.1786-.3363-.064-.7148-.1281-1.0301-.0213-.7779.235-.946 1.2388-1.2194 2.0291-.7568 2.1787-2.9853 3.3534-4.8774 4.635-1.8921 1.2815-1.1563 1.9223-3.2587 4.2718-1.7239-1.1747-4.2047.534-5.9076 1.7301-1.7239 1.1961.7359 1.1961-.3994 2.969 1.808.4485.063 2.499 1.9341 2.4776-3.9524 1.1962-4.3308 3.268-7.19 6.2797 2.7961.235 5.4661-5.5534 9.0401-4.0583 2.607 1.0893 2.5228-1.2816 1.0512.6408-4.2888.8543-6.5173 5.831-6.202 10.2524-3.0273 3.4389-5.34 7.4971-6.7905 11.8758-.5887 1.7942-1.0722 3.7165-2.2706 5.169-.7148.897-1.6818 1.5805-2.2705 2.563-.5887.9826-.6097 2.4777.3574 3.0971-1.4506.0641-2.9643.1495-4.2468.8544-1.2824.7048-2.2495 2.2427-1.85 3.6524.1682.5767-.6097-.4485-.7148.1495-.1051.6195.3994.9612-.2103 1.068-2.3125.4272-3.3637 1.2816-5.6763 7.6893 1.3245.6408 1.871.9612 3.1535.2136 1.2825-.7475 2.5228-3.631 3.1536-1.7087-3.49 1.3243 5.6973 4.6136-5.0457 3.2039l-.3994.8543c-.021-.0427-.021-.0427-.042-.0427z"/>
        </g>
        <g transform="translate(185 61)">
            <path d="M46 25.21h-2.9884V22.887c0-1.2871-.9115-2.33-2.0381-2.33H27.028c-1.1266 0-2.041 1.0429-2.041 2.33V25.21H22v-2.6527c0-2.9906 2.1203-5.4145 4.7381-5.4145H41.262c2.6163 0 4.7381 2.4239 4.7381 5.4145v2.6527z"
                  fill="#333"/>
            <path stroke="#979797" stroke-width="2" d="M17 3.0168h34v31.2773H17z"/>
            <path d="M68 33.2773v63.5294c0 4.4554-3.5817 8.0672-8 8.0672H8c-4.4183 0-8-3.6118-8-8.0672V33.2773c0-4.4554 3.5817-8.0672 8-8.0672h52c4.4183 0 8 3.6118 8 8.0672z"
                  fill="#D8D8D8"/>
            <path d="M65 94.8571V35.227c0-3.866-3.134-7-7-7H10c-3.866 0-7 3.134-7 7V94.857c0 3.866 3.134 7 7 7h48c3.866 0 7-3.134 7-7z"
                  stroke="#E1E1E1" stroke-width="2"/>
            <path d="M16 0h36c.5523 0 1 .4477 1 1v7.0672h-3.0067l-.9899-1.9137H19.0761l-1.1172 1.9137H15V1c0-.5523.4477-1 1-1z"
                  fill="#333"/>
            <ellipse fill="#3E3832" cx="12.5" cy="113.4454" rx="6.5" ry="6.5546"/>
            <ellipse fill="#3E3832" cx="54.5" cy="113.4454" rx="6.5" ry="6.5546"/>
        </g>
        <g>
            <path d="M91.825 105.8445c1.498-1.6164 1.573-4.3256.1709-6.05l-14.9806-18.441c-1.4023-1.7244-3.7504-1.8132-5.2485-.1969-1.496 1.6164-1.573 4.3232-.1708 6.0477l14.9806 18.4408c1.4022 1.7245 3.7504 1.8158 5.2484.1994"
                  fill="#C52D35"/>
            <path d="M45.5447 53.4315c6.3523-6.4907 16.3609-6.1313 22.3083.7988 5.9496 6.9276 5.6223 17.8466-.73 24.3373-6.3544 6.4908-16.363 6.1337-22.3126-.7963-5.9474-6.93-5.618-17.849.7343-24.3398m23.3247 27.1728c7.3837-7.5431 7.7648-20.231.8527-28.284-6.9143-8.0505-18.5443-8.4663-25.9259-.9255-7.3816 7.5432-7.7648 20.231-.8506 28.284 6.9122 8.053 18.5422 8.4664 25.9238.9255"
                  fill="#303339"/>
            <path d="M73.4785 84.883c1.1556-1.1532 1.679-2.5588.5959-3.7945l-3.6163-4.1189c-1.0831-1.2357-2.8949-1.2974-4.0528-.1442-1.1532 1.1533-1.2135 3.0892-.1303 4.3223l3.6162 4.1215c1.0832 1.2357 2.4318.7672 3.5873-.3861"
                  fill="#303339"/>
            <path d="M75.8344 84l13.7834 16.6942c.457.553.4306 1.4169-.0548 1.9353-.4874.5184-1.249.4884-1.706-.0622l-13.1903-15.98c.8001-.8824 1.1393-1.8109 1.1677-2.5873"
                  fill="#DA4D57"/>
        </g>
    </g>
</svg>
