<svg width="227" height="183" xmlns="http://www.w3.org/2000/svg" xmlns:xlink="http://www.w3.org/1999/xlink"><defs><path id="path-1" d="M0 .21h145.93v135.67H0z"/><path d="M.16 42.4c-.1-.57-.16-1.17-.16-1.8C0 18.19 16 0 35.76 0 55.5 0 71.5 18.18 71.5 40.6l-.01.45h.1s.03 43.23-35.85 43.23C-.14 84.28 0 99.16 0 99.16V42.4h.16z" id="path-3"/><path d="M54.99.26c8.52 4.31 21.77 15.99 21.77 26.82v35.78H0V27.08C0 16.63 12.13 5.39 20.55.74l-.65.43c1.45 2.48 5.36 13.45 17.6 13.45 12.24 0 17.94-11.78 17.94-14.08l-.45-.28z" id="path-5"/><path id="path-7" d="M.54.64h10.35v6.1H.54z"/><path id="path-9" d="M.44.48h8.45v6.1H.44z"/><path id="path-11" d="M0 .2h7.72v34.48H0z"/></defs><g id="Page-1" fill="none" fill-rule="evenodd"><g id="Group-6-Copy-2"><g id="Group-6-Copy"><g id="Group-4"><mask id="mask-2" fill="#fff"><use xlink:href="#path-1"/></mask><path d="M78.17 112.47c-.82-1.05-1.89-1.83-2.81-2.72-2.07-2-4.05-4.3-4.1-7.56 0-.9-.3-1.51-1.09-1.86-.08-.03-.16-.08-.24-.1-1.25-.37-.06-2.01-1.12-2.39-.65-.23-1.11-.52-1.25-1a.18.18 0 0 0-.34-.05c-.2.38-.46.7-.94.85-.51.17-.4.63-.22 1.05.23.54 1.4.87.69 1.66-.16.09-.24 0-.29-.13-.27-.76-1.52-.26-1.77.5-.26.83.05 1.56.94 2.6a6.38 6.38 0 0 1 1.6 4.14c.08 2.31.78 4.39 3.11 5.36.2.08.46.25.5.42.49 2.17 2.36 3.18 3.58 4.73.14.18.3.35.43.54.43.67 1.3 1.49.57 2.16-.73.68-1.1-.54-1.57-.97-.6-.55-1.2-.96-2.03-.74-1 .28-1.37 1.06-.77 2.17.61 1.15.34 1.7-.8 2-.86.22-1.14 1.13-1.74 1.66-.31.28-.66.87-1.09.45-.43-.42-.06-1 .27-1.34.98-1.05 1.2-2.2 1.1-3.66-.13-1.9-1.23-3.14-2.25-4.39-2.51-3.07-5.16-6.02-7.13-9.54-.56-1-.81-2.03-.81-3.17a4.9 4.9 0 0 0-1.95-4.07c-1.08-.83-2.22-1.18-3.42-.2-.4.33-.85.46-1.37.4-2.13-.21-2.46.47-3.13 2.51-.1.3-.74.69-1.05.92a.18.18 0 0 1-.3-.13v-.1c0-.89-.45-1.7-1.2-2.12-.23-.13-.45-.3-.67-.5a10.9 10.9 0 0 0-3.9-2.36c-1.88-.6-2.85-.14-3.65 1.64-.15.34-.26.69-.71.7-.56 0-.17.12-.03.25 1.03 1.01.1 1.62-.58 1.8-1.47.41-2.9 1.2-4.54.77-.94-.25-1.84-.08-2.52.83-.47.64-1.27.84-1.93 1.2-1.33.73-2.18 1.78-2.11 3.4.04 1.11-.47 1.72-1.42 2.07-.37.13-.92.28-1.03.57-.62 1.57-1.8 2.01-3.28 1.98-.08 0-.2.03-.24.09-1.68 1.85-3.5.8-5.32.31a13.57 13.57 0 0 0-6.24-.04c-.76.15-1.18-.3-1.28-.88-.51-2.87-2.06-4.07-4.9-4.09-1.83 0-2.02-.62-1.38-2.45.56-1.6 1.1-3.15-.23-4.67-.44-.5-.16-1 .3-1.44 2.03-1.9 3.62-4.07 3.88-7.03.02-.27.15-.54.29-.77.65-1.19.83-2.38.3-3.7-.47-1.15-.14-1.6 1.03-1.46.7.08 1.3.06 1.9-.35.67-.45 1.33-.27 1.83.28.82.87 1.86 1.21 2.92 1.58 4 1.4 8.17 2.33 11.93 4.42.59.32 1.34.17 1.7-.4.26-.42.18-.78-.03-1.18-.09-.16.06-.33.22-.27.87.33 1.19-.5 1.36-1.21.47-1.9 1.85-3.38 2.05-5.39.08-.8.1-1.43-.58-1.95a2.8 2.8 0 0 1-1.07-2.82c.13-.82-.23-1.42-.86-1.71-1.53-.71-2.61-2.08-4.11-2.83-.92-.46-1.14-1.78-.58-2.89.42-.84 1.13-.49 1.77-.36 1.36.28 2.76.23 3.77 1.65.37.53 1.52.6 2.28.96.57.27.9-.2 1.1-.7.3-.73.22-1.45.04-2.18-.1-.44-.02-.85.44-1.04.47-.2.9-.08 1.16.38.36.64.74 1.26 1.36 1.68.94.65 1.84.97 2.68-.18.5-.7 1.21-.6 1.95-.48 2.2.36 2.34.27 3.24-1.8.55-1.29 1.36-1.64 2.55-.95.73.42 1.21-.22 1.82-.28a5 5 0 0 0 4.03-2.32c.52-.82 1.37-1.43 2.1-2.09.4-.36.68-.07.99.29.62.71 1.18.86 1.44-.35.15-.7.68-.94 1.31-.97.86-.05 1.68.08 2.48.43.38.17.76.73.49-.1-.2-.61-.27-.28-.27-.84 0-1.46-1.03-1.9-1.6-3.05-.1-.19.13-.8.44-1.27.08-.12.25-.1.32.02.64 1.25 1.25 2.44 1.88 3.63.61 1.15 3.5 2.56 4.73 2.43.88-.09 1.16-.42.99-1.33-.23-1.17-.28-2.31.92-3.09.35-.22-.15-.23-.22-.27-.4-.19-.8-.46-.7-.9.31-1.62-.45-3.18-.07-4.82.3-1.28 1.08-2.1 1.88-2.95.34-.36.75-.35 1.03.08.5.77.66 1.2 1.54.1.53-.66 1.78-1.19 2.8-1.52.6-.2 1.03.2.9.95-.07.52-.32.98-.7 1.3-.97.85-1.09 1.74-.25 2.76.68.83.4 1.23-.58 1.24-.57.01-1.01.29-1.43.66-.97.88-.94 1.3.21 1.84.42.2.67.44.67.91 0 .38-.06.77-.4.98-.5.28-.85-.07-1.2-.37-.17-.15-.3-.33-.47-.49-.25-.24-.47-.65-.88-.49-.44.19-.22.6-.2.97.14 2.26.34 2.55 2.6 3.35.49.17.51.43.27.82-.26.42-.37.85 0 1.27a1 1 0 0 0 1.35.2c1.54-.97 3.21-.83 4.9-.72.2.02.62.05.59.12-.74 1.48 1.21 2.06 1.22 3.3 0 .16.18.25.3.15.82-.68 1.71-.8 2.78-.5.85.22 1.77.12 2.63-.2 1.64-.6 3.33-.5 5.02-.31.74.08 1.15.4 1.17 1.21.01.81.46 1.5 1.19 1.4 2.05-.26 3.43 1.33 5.19 1.86 1.05.33 2.07.87 3.15 1.12.4.1.99.84 1.33-.05.32-.86 1.09-1.91-.01-2.61-1.02-.65-1.88-1.55-2.94-2.09-.63-.31-.91-.53-.3-1.15.84-.84 1.05-1.9.92-3.06-.05-.47-.16-1.02.16-1.34 1.27-1.29 2.2-3.05 4.24-3.33.8-.12 1.28.08 1.52.9.2.7.42 1.41.72 2.08.41.93 1.27 1.16 2.13 1.13.9-.03 1.08-.8 1.26-1.55.47-1.99.48-1.99 2.68-1.4-1 0-1.29-1.82-2.57-2.48-.9-.47-.67-1.72-.56-2.7.1-.82.85-.71 1.36-.86 2.8-.79 5.35.2 7.88 1.23.9.37 1.7 1.04 2.67 1.26.95.22.71.67.13 1.05-1.62 1.04-2.25 2.49-2.04 4.46.13 1.2-.94 1.1-1.6 1.46-.1.06-.11.23-.01.3.74.62.93 1.46.67 2.47-.38 1.51.5 2.86.54 4.32 0 .11.13.3.22.32 1.47.36 2.1 2.13 3.75 2.26 1.4.1 2.4 1.46 1.9 2.55-1.22 2.77.14 4.89 1.4 7.07.09.15.24.27.33.43.3.58 1 1.17.33 1.83-.59.59-1.33.6-2.09.12-1.06-.7-1.31-.53-1.41.8-.03.38-.04.75-.04 1.12-.04 2.24-.04 2.14 2.07 2.14 1.09 0 2.22.3 3.24.7.97.38.92 1.4.73 2.28-.44 2.04-.4 2.23 1.26 3.18.86.5 1.14 1.32 1.04 2.23-.1.84.25 1.18.9 1.61 1.03.67 1.87 1.7 3.3 1.24.3-.1.65.19.73.51.45 1.97 2.27 2.3 3.56 3.26.62.45 1.27.85 1.88 1.32.57.44.67.8.18 1.59-.5.8-1.22 1.61-1.21 2.76 0 1.13-.77 1.7-1.8 1.33-1.69-.6-3.04-.18-4.16 1.2a.98.98 0 0 1-.82.4c-1.73-.03-3.46.37-5.2.07-.3-.05-.65-.14-.92-.05-3.1 1.15-5.76-.77-8.6-1.32-.85-.16-1.7-.57-1.03-1.82.21-.4-.03-.67-.38-.9-1.14-.71-3.47-.51-4.5.45a5.4 5.4 0 0 1-1.9 1.26c-.95.33-1.65.84-1.8 1.98-.1.72-.63.95-1.29.9-1.21-.09-1.92.57-2.28 1.7a3.38 3.38 0 0 1-1.88 2.14c-.84.41-1.59 1.03-2.33 1.62-.65.5-.49 1.22-.31 1.9.07.3.33.64 0 .9-.28.21-.59-.01-.88-.14-.4-.17-.8-.41-1.23-.5-1.42-.33-1.6-.17-1.72 1.32-.08.94-.85 1.25-1.43 1.72-.53.44-.9 0-1.27-.34-.38-.34-.85-.61-1.33-.57-1.02.08-1.95.11-2.87-.57-.43-.32-.99.03-1.26.65-.6 1.35-1.2 1.43-2.22.34-.19-.2-.35-.42-.57-.58-.31-.21-.67-.26-1-.02-.33.25-.4.63-.26 1 .2.56.46 1.1.68 1.66.37.92 1 1.86-.48 2.47-.55.23-.37.77.1 1.08.14.09.33.13.5.13.92 0 1.7.26 1.99 1.28.1.38.1.78-.22 1.02-.82.63-1.6.3-2.36-.16-.3-.2-.73-.39-.97-.02-.25.4.26.5.45.7.25.25.64.48.44.9-.2.45-.6.35-.93.17-1.1-.62-1.06.16-1.08.92-.01.44.16 1.04-.32 1.26-.54.23-.72-.41-1-.73-.3-.35-.6-.69-.97-.95a2.15 2.15 0 0 1-.9-2.2c.08-.41.1-.8.01-1.23-.25-1.22.06-1.5 1.26-1.2.13.04.25.12.38.13.43.02 1.04.67 1.25-.04.17-.62-.53-1.26-1.04-1.21-2.27.2-2.55-.97-2.6-3.01-.04-1.4-1.4-2.57-1.8-4.09-.4-1.53-.19-2.81.8-3.84.75-.8 1.17-1.44.5-2.48-.08-.13.01-.4.04-.61a.2.2 0 0 1 .05-.1c.44-.55 1.42-.83 1-1.82-.3-.69-.53-1.71-1.26-1.83-.94-.15-1.02 1.1-1.58 1.65-.07.06-.12.13-.18.2" id="Fill-1" stroke="#D8D8D8" stroke-width="2" fill="#D8D8D8" mask="url(#mask-2)"/><path d="M65.31 35.65c-.26-.28 0-.28-.26-.28-.64 0-.36-.14-1.07-.55-1.17-.68-.77-2.24.32-3.28a2.72 2.72 0 0 0 .8-2.98c-.16-.52-.1-.9.26-1.25.32-.3.67-.45 1.1-.23.58.3 1.19.67 1.26-.5.01-.13.25-.38.36-.36 1.26.2 2.51-1.09 3.78-.05.14.11.32.17.49.23.25.08.55.2.73-.08.2-.29-.03-.51-.2-.72-.19-.23-.61-.37-.36-.77.17-.27.5-.2.74-.12 1 .28 1.92-.33 2.9-.26.69.05.46-.1.92-.2.3-.06.14.1.53 0 .44-.1.5.15.8 0 1.32-.59.3-.17 1.1-.73 1.86-1.29 3.6-3.24 6.25-2.08.2.1.44.15.62-.04.15-.17.12-.35.05-.53a8.15 8.15 0 0 0-.5-.97c-.36-.63-.38-1.03.41-.9.78.14 1.56-.4 2.35.1.32.2.63-.12.66-.48.04-.73.54-1.24.78-1.85.5-1.27.96-2.27 2.54-1.64.29.11.64-.19.7-.52.25-1.15 1.2-1.5 2-2.08 1.47-1.06 3.02-2.05 4.15-3.54.77-1 2.16-1.13 2.96-1.13.08 0 .32-.04.46-.07 1.15-.2.8-.29.61-.48-.27-.28.86-.9 0-.56-1.59.62-2.99.25-3.74-.55 0 0-.27 0-.54-.56-.12-.25.1-.42.3-.54.75-.47 1.48-1 2.3-1.3.5-.2.98-.45 1.47-.73.4-.23.8.26.53.65v.01c-.16.23-.36.47-.22.76.16.34.44.17.7.07.16-.06.47-.17.48-.15.5 1.18 1.45 1.11 2.46 1.04.3-.02.67 1 .94.17.18-.55.49-1.52-.5-1.9a.74.74 0 0 0-.1-.03c-.43-.1-.6-.64-.27-.95.9-.85 1.86-.87 2.84-.07.31.26.64.43.93.1.39-.44.83-.46 1.33-.44.35.02.67-.23.63-.58-.16-1.38.76-1.15 1.54-1.18.88-.03 1.18.36.76 1.18-.28.56-.03.93.57.88.64-.05.81.33.84.92.01.37.1.8.57.8.43-.01.48-.47.65-.8.32-.62.62.92.77.15.63 1.13.68-.13 2-.09.02-.05.08-.13.09-.2.02-.5-.9-.86-.4-1.3.52-.44 1.06.14 1.51.5.32.26.67.6 1.06.2.32-.34 0-.69-.14-1-.17-.38-.46-.77-.18-1.17.3-.42.75-.2 1.1-.06.83.34 1.62.3 2.64-.37-.4 1.03-1.54 1.8-1.26 2.37.27.56 0 .84 0 .84-.52.54-.27.28-.27.55 0 .77.34.25.48-.36.38-1.63 1.47-2.15 2.76-1.27.35.24.75.1.87-.31.26-.94.8-.98 1.5-.53.68.44 1.26.25 1.84-.22.4-.31.88-.35 1.17.14.38.64-.29.6-.57.81-.87.63-1.63 1.42-2.67 1.78-.43.15-.74.63-.49 1.13.24.48.73.33 1.07.14 1.06-.59 2.08-1.25 3.13-1.86.3-.17.64-.55.96-.28.35.3-.04.66-.17.98-.19.44-.67.95-.17 1.36.5.42 1-.07 1.44-.36.43-.28.66-.72.88-1.2.57-1.22 1.84-1.42 2.7-.45.34.39.59.82-.08 1.21-.29.17-.47.47-.55.8-.1.39-.44.87-.07 1.15.49.36.62-.3.86-.57.94-1.05 1.5-1 2.64 0 .94.8 2.32 1 2.9 2.31.19.4.73.72.5 1.2-.22.47-.73.1-1.1.19-1.17.27-2.33.6-3.34-.46-.12-.12-.39-.08-.45.12a.6.6 0 0 0 .1.48c.47.51.82 1.07 1.06 1.75.18.5.65.6 1.13.4.38-.16.75-.32 1.15-.1.24.12.47.3.4.63-.06.27-.3.41-.5.35-1-.3-1.94.13-2.9.25-.37.04-.91.12-1.1-.29-.33-.72-.34-.12-.47.08a4.11 4.11 0 0 1-1.85 1.7c-1.84.8-2.15 3.04-.68 4.41.2.19.42.35.6.55 1.7 1.85 1.56 2.7-.6 3.82a2.67 2.67 0 0 0-1.3 3.07c.26.98.49 1.97.73 2.96.22.9.4 1.74-.89 1.96-.48.08-.62.62-.68 1.1-.08.6.2 1.33-.53 1.73-.03.02-.07.1-.06.1 1.12 1.02-.33 2.45.52 3.5.76.92.6 1.46-.58 1.67-1.17.2-1.13.81-.47 1.62.81.98 1.72 1.88 2.21 3.11.48 1.2.24 2.26-.93 2.6-2.93.87-5.2 3.22-8.26 3.8-.76.15-1.49.63-2.15 1.08-.68.47-1.36.69-2.14.45-2.52-.76-5.12-.6-7.7-.7-2.48-.07-4.55-.92-6.14-3-.51-.67-1.35-1.04-1.93-1.69-.52-.58-.68-1.17-.1-1.68 2.22-1.93 1.59-4.6 1.73-7.05.05-.89 1.43-2.75 2.29-2.56 1.18.26 1.78-.29 2.63-1.01.86-.74 2.17-1.05 3.32-1.22a5.15 5.15 0 0 0 3.63-2.07c.42-.56.8-1.01 1.66-.79.79.2 1.6-1.79.99-2.7-.86-1.28-1.83-2.55-3.5-2.76a8.7 8.7 0 0 1-1.3-.26c-2.06-.6-3.69.05-5.1 1.72-.73.88-1.53 1.55-1.31 2.91.1.66-.59.97-1.12 1.24-2.03 1-4.3 1.15-6.41 1.87-1.98.67-4.1 1.6-5.35 3.13-1.43 1.73-3.18 3.66-2.99 6.4.04.58 0 1.07.64 1.34 1.53.67 1.9 2.23 2.45 3.63.15.38.04.77-.32.96-1.82 1-2.96 3.24-5.48 3.01-.94-.08-1.52.87-1.78 1.83-.37 1.34-.9 2.6-1.72 3.74-.26.35-.69.77-.44 1.22.29.53.79-.25 1.28.08-.28.7-.86 1.15-1.3 1.69-.28.32-.67.53-1.06.14-.47-.47-.79-.18-1.1.22-.43.57-.93.57-1.54.28-2.04-.96-2.4-.84-3.72.97-.7.96-1.65.46-2.46.26-.89-.22-.45-.97-.48-1.6-.1-1.75.71-3.46-.06-5.28a7.59 7.59 0 0 1-.48-3.81c.13-1.01-.03-1.9-.42-2.83-.58-1.41-.28-2.02.94-2.17-.96-.76-1.05-1.9-1.35-2.95-.07-.27-.1-.6-.4-.66-.32-.08-.48.2-.6.44-.48.98-1.22 1.27-2.22.98-.46-.13-.87.14-1.27.34-.56.28-1.12.57-1.7.8-3.87 1.58-5.8.98-8.24-2.53-.49-.7-.78-1.3.42-1.57.35-.07.63-.47.97-.69.45-.29.64-.65.34-1.15-.28-.47-.7-.5-1.17-.29-.4.18-.86.57-1.23.17-.46-.47.23-.78.32-1.2l.1-.67c.03-.24.07-.48.31-.57.37-.13.4-.18.66-.18.8 0 .55.79 1.07 0" id="Fill-3" stroke="#D8D8D8" stroke-width="2" fill="#D8D8D8" mask="url(#mask-2)"/></g><path d="M31.83 37.6c-.69 0-.81.34-1 .6-.47.67-1.05 1.45-1.86.9-.8-.54-.61-1.87-.25-2.39.65-.9.39-1.25-.15-1.85-.85-.95-.1-1.56.63-2 1-.62 1.01-1.13.09-1.7a1.44 1.44 0 0 1-.34-.3c-.34-.42-1.02-.86-.5-1.44.58-.65.97.06 1.27.52.54.84.77.83 1.5-.09 1-1.26 2.1-2.45 3.14-3.69.47-.55 1.08-.48 1.68-.17 1.45.73 2.92 1.41 4.56-.05a5.3 5.3 0 0 1-3.07 3.3c-.49.2-1.25.2-1.17 1.02.08.82.78.8 1.4.86a9.3 9.3 0 0 1 4.17 1.14c.72.44.86.94.37 1.68-1.1 1.65-2.17 3.34-4.04 4.15-.33.15-.64.38-.9.63-.52.54-.65.92.24 1.2 2.31.7 3.43 2.47 3.32 5.1-.06 1.16.14 2.22 1 3.01.8.73 1.28 1.77 1.1 2.82-.32 1.78.27 3.47-.02 5.23-.16.92.19 1.55 1.3 1.26 1.33-.34 2.16.44 2.52 1.63.36 1.19-.6 1.7-1.43 2.16-.78.42-1.63.7-2.34 1.22-.7.5-1.21 1.22-.03 1.77.26.12.67.14.62.56-.06.45-.5.5-.83.6-1.2.35-2.47.63-3.6.28-1.79-.55-3.67-.8-5.46-1.25-2.03-.52-4.46-1.84-6.8-.12-.13.1-.47.15-.56.05-1.26-1.35-2.72-.93-4.16-.25-.33-.78.17-1.06.5-1.3 2.04-1.4 3.98-3.3 6.65-1.9.28.16.7.07 1.05.01.4-.06.91-.2.94-.67.04-.66-.57-.42-.91-.45-.64-.05-1.11-.41-1.64-.7-1.18-.62-2.03-1.86-3.52-1.9-.34-.01-.65-.32-.62-.76.03-.5.44-.53.79-.6.8-.17 1.62-.22 2.38-.5.87-.33 1.32-.94.5-1.79-.45-.44-1.07-1-.2-1.47.68-.38.68-2.44 2.2-1.06.72.64 1.88 1.23 2.9.24.89-.86 1.25-3.5.66-4.28-.56-.73-.42-1.33.2-1.95.34-.34.7-.78.44-1.27-.3-.58-.8-.16-1.21-.02-.7.25-1.4.23-2.1.16-.73-.07-1.52-.19-1.8-.92-.28-.75.56-1.06.96-1.5 1-1.04.8-2.46 1.43-3.77" id="Fill-5" stroke="#D8D8D8" fill="#D8D8D8"/><path d="M23.07 11.14c.9-.48 1.7-.2 2.43.16 1.2.58 1.61-.54 1.82-1.17.27-.84-.66-1.03-1.26-1.17-.72-.16-1.47-.16-2.2-.3-.39-.06-.78-.29-.85-.77-.06-.43.27-.66.58-.85.95-.58 1.86-1.68 2.88-.13.14-.18.23-.25.23-.32.04-.4-.5-.85-.08-1.15.44-.33.84.15 1.12.46.92.97 2.22 1.73 1.38 3.58-.29.63-.04 1.33 1.01 1.21 1-.1 1.93.13 2.05-1.46.05-.6.71-.48.9.12.31 1.05.7 1 1.3.23.13-.18.6-.35.68-.27.86.92 2.12.63 3.07 1.23.92.58 1.82.86 2.62-.16.41-.52.72-.38 1.07.03.12.14.2.34.34.41 1.4.74 2.72 1.5 2.36 3.6-.03.18.36.49.59.7 1.33 1.17 1.2 2.68-.43 3.28-1.43.52-2.8 1.08-4.44 1.17-2.02.12-4.12-.11-6.16.65-1.47.56-2.96-.07-3.99-1.42-1.13-1.5-2.48-2.44-4.33-2.5-.41 0-1.03-.1-1-.65.02-.64.6-.27.95-.3.45-.04.92-.06 1.07-.6.13-.5-.1-.91-.35-1.4-.76-1.42-1.92-1.98-3.36-2.21" id="Fill-6" stroke="#D8D8D8" fill="#D8D8D8"/><path d="M12.7 55.78a3.67 3.67 0 0 1-1.57-1.17c-.83-1.04-.66-1.79.58-2.13 1.12-.31 1.61-1.4 2.51-1.97.41-.26.18-.84-.12-1.18-.61-.71-.52-1.38-.44-2.33.17-2.08.85-1.75 2.13-1.08.81.42 1.78.05 2.66-.01.57-.04.71-.45.35-.94-.25-.35-.65-.69-.26-1.15.36-.44.85-.3 1.31-.18.04.01.1.01.12.04.97 1.37 2.3.67 3.52.69 1.1.02 2.53 2.42 2.09 3.45-.25.57-.78.7-1.3.7-1.22.02-1.56.63-1.52 1.84a10.3 10.3 0 0 1-.89 4.13c-.37.94-1 1.35-1.92.94-1.07-.47-2.05-.3-3.1.08-1.35.5-2.76.54-4.14.27" id="Fill-7" stroke="#D8D8D8" fill="#D8D8D8"/><path d="M78.68 58.48c-.83.94-1.09 2.3-2.1 3.1-.53.4-1.1.81-1.8.44-.25-.13-.46-.37-.45-.7 0-.3.25-.35.5-.39.98-.15.78-.71.44-1.36-.41-.8-.89-1.7.04-2.36.77-.54 1.75-.54 2.38.3.3.39 1.35-.1.99.97" id="Fill-8" stroke="#D8D8D8" fill="#D8D8D8"/><path d="M74.52 105.74c.04-.07 2.8 7.42 2.84 7.35.43-.58.5-1.92 1.23-1.76.56.13.74 1.22.97 1.96.33 1.08-.47 1.37-.8 1.99-.27.21-.56.3-.72-.15-.5-1.37-1.33-1.37-2.23-1.22-.18.03-.37-.03-.56-.36-.53-2.16-1.28-8.57-.73-7.8" id="Fill-9" stroke="#D8D8D8" fill="#D8D8D8"/><path d="M58.4 134.78a5.16 5.16 0 0 1-.18-6.38l15.24-19.46c1.43-1.82 3.82-1.92 5.35-.21a5.16 5.16 0 0 1 .17 6.38l-15.24 19.46c-1.43 1.82-3.82 1.92-5.34.21" id="Fill-33" fill="#C52D35" transform="matrix(-1 0 0 1 137.2 0)"/><path d="M52.95 78.94c-6.53-6.93-16.83-6.55-22.94.85-6.12 7.4-5.78 19.07.75 26 6.53 6.94 16.83 6.56 22.94-.84 6.12-7.4 5.78-19.07-.75-26m-23.99 29.02c-7.6-8.06-7.98-21.61-.88-30.22 7.12-8.6 19.08-9.04 26.67-.99 7.59 8.06 7.98 21.62.87 30.23-7.1 8.6-19.07 9.04-26.66.98" id="Fill-34" fill="#303339" transform="matrix(-1 0 0 1 83.7 0)"/><path d="M52.31 112.55c-1.21-1.24-1.77-2.74-.63-4.06l3.81-4.4a2.86 2.86 0 0 1 4.27-.15 3.46 3.46 0 0 1 .13 4.62l-3.8 4.4c-1.14 1.32-2.56.82-3.78-.41" id="Fill-35" fill="#303339" transform="matrix(-1 0 0 1 111.77 0)"/><path d="M75.29 111.07l-14.24 18c-.48.59-.45 1.52.05 2.08s1.3.53 1.76-.07l13.63-17.22a4.57 4.57 0 0 1-1.2-2.8" id="Fill-36" fill="#DA4D57" transform="matrix(-1 0 0 1 137.2 0)"/><g id="mennesker/NAV-ansatt/kvinne/-Frida" transform="translate(106 33)"><g id="mennesker/kvinne/-forfra/-B"><g id="Group-2" transform="translate(3.04 9.33)"><g id="mennesker/kvinne/⚙️/-hår/-lang-side"><g id="Group-5" transform="translate(12.78)"><g id="hårfarge/-gull"><mask id="mask-4" fill="#fff"><use xlink:href="#path-3"/></mask><g id="mennesker/⚙️/hårfarge/-gull" mask="url(#mask-4)" fill="#F6B873"><path d="M0 0h97.76v115.76H0z" transform="translate(-12.78 -1.46)" id="hårfarge/-gull"/></g></g></g></g><g id="Group" transform="translate(9.99 23.32)"><path d="M19.98 54.91c1.45 2.38 5.55 44.2 17.83 44.2 12.29 0 17.84-42.6 17.84-44.81-18.82-11.01-35.67.61-35.67.61z" id="Combined-Shape" fill="#E7E5E2"/><g id="mennesker/⚙️/kropp/forfra/-rund-hals" transform="translate(0 49.56)"><g id="Group" transform="translate(0 4.39)"><g id="+20/-Blå"><mask id="mask-6" fill="#fff"><use xlink:href="#path-5"/></mask><use id="Mask" fill="#D8A25D" xlink:href="#path-5"/><g id="-2-Styles/-Farge/-interaksjon/-Dyp-blå" mask="url(#mask-6)" fill="#005B82"><path d="M0 146h179.24V0H0z" transform="translate(-46.91 -40.93)" id="Fill-25"/></g></g></g></g><path d="M9.33 16.8s-.15.86-.34.72a2.27 2.27 0 0 0-.87-.18 2.47 2.47 0 0 0-2.4 2.53l-.01 9.7c0 1.4 1.07 2.55 2.4 2.55a2.3 2.3 0 0 0 1.4-.5c3.21 15.63 14.63 26.66 28.25 26.68 13.62.03 25.08-10.97 28.32-26.58.4.3.89.5 1.42.5 1.32 0 2.4-1.14 2.4-2.54l.01-9.7c0-1.4-1.06-2.54-2.39-2.54-.3 0-.6.06-.86.17C35.94 21.33 25.23.01 24.32 0c0 0-12.84 12.28-14.99 16.8z" id="Fill-337-Copy-7" fill="#E7E5E2"/></g><g id="mennesker/kvinne/⚙️/ansikt-forfra/-glad" transform="translate(24.26 40.81)"><g id="Group" transform="translate(10.04)"><path d="M3.34 8.38C1.26 8.54.68 5.45 1.3 3.43c.12-.38.8-2.13 2.03-2.13 1.21 0 1.75.96 1.82 1.12.9 1.97.46 5.8-1.81 5.96" id="Fill-42" fill="#635E59"/><path d="M26.5 8.38c2.07.16 2.65-2.93 2.03-4.95-.12-.38-.8-2.13-2.02-2.13s-1.76.96-1.83 1.12c-.9 1.97-.45 5.8 1.82 5.96" id="Fill-44" fill="#635E59"/><path d="M15.57 11.94c1.22-.19 2.06-.07 2.36.3 1.12 1.4.76 2.88-1.17 4.1-1.02.64-2.42.86-3.16.53a.71.71 0 0 0-.94.37c-.16.37 0 .8.36.96 1.23.54 3.11.24 4.5-.63 2.62-1.65 3.23-4.12 1.52-6.25-.72-.9-2-1.07-3.68-.81a.72.72 0 0 0-.6.82c.06.4.42.67.81.61z" id="Stroke-46" fill="#D1BFA3" fill-rule="nonzero"/><path d="M23.75 22.51a10.26 10.26 0 0 1-1.98 2.7 9.58 9.58 0 0 1-7.26 2.71 11.12 11.12 0 0 1-8.9-4.62 6.61 6.61 0 0 1-.5-.82.71.71 0 0 0-.97-.33.73.73 0 0 0-.32.97 12.2 12.2 0 0 0 2.55 3.15c2.1 1.85 4.79 3 8.1 3.1a11 11 0 0 0 8.3-3.12 11.7 11.7 0 0 0 2.3-3.16c.15-.36-.02-.8-.38-.95a.71.71 0 0 0-.94.37z" id="Stroke-48" fill="#D19E9C" fill-rule="nonzero"/></g></g></g></g></g><g id="Group-2" transform="translate(189.02 130.56)"><g id="gjenstander/reise/pass/-Norge" transform="translate(3)"><g id="pass/-Norge" transform="translate(0 .73)"><path d="M30.44 2.09c0-1.16-.9-2.09-2.01-2.09H0v40.49h28.43c1.11 0 2.01-.94 2.01-2.1V2.1z" id="Fill-1" fill="#A33C28"/><path d="M8.18 30.02v-4.2h1.53c.26 0 .47.02.61.05a1.02 1.02 0 0 1 .82.6c.08.17.12.36.12.57 0 .35-.1.66-.32.9-.22.25-.62.37-1.19.37H8.72v1.7h-.54zm.54-2.2h1.04c.35 0 .6-.07.74-.2a.73.73 0 0 0 .21-.57.78.78 0 0 0-.12-.45.6.6 0 0 0-.34-.24 2.2 2.2 0 0 0-.5-.04H8.72v1.5zm2.78 2.2l1.55-4.2h.58l1.65 4.2h-.61l-.47-1.27H12.5l-.44 1.27h-.57zm1.17-1.72h1.36l-.42-1.16c-.13-.36-.22-.65-.28-.87a5.5 5.5 0 0 1-.22.8l-.44 1.23zm2.85.37l.5-.04c.03.2.09.38.17.51.09.14.22.24.4.33.2.08.4.12.63.12.2 0 .38-.03.54-.1a.75.75 0 0 0 .34-.25.62.62 0 0 0 0-.7.81.81 0 0 0-.35-.25 6.9 6.9 0 0 0-.72-.2c-.37-.1-.63-.19-.78-.27a.98.98 0 0 1-.57-.91 1.1 1.1 0 0 1 .68-1.01c.22-.1.46-.15.74-.15.3 0 .56.05.79.15.23.1.4.25.52.45.13.19.2.41.2.66l-.5.04a.87.87 0 0 0-.29-.6c-.16-.14-.4-.2-.7-.2-.32 0-.56.05-.7.18a.56.56 0 0 0-.23.44c0 .15.05.28.16.37.1.1.37.2.8.3.44.1.73.2.9.27a1.07 1.07 0 0 1 .69 1.02c0 .23-.07.44-.2.63-.11.2-.29.36-.52.46a2.24 2.24 0 0 1-1.7 0 1.3 1.3 0 0 1-.58-.5 1.45 1.45 0 0 1-.22-.75zm3.76 0l.5-.04c.03.2.08.38.17.51.09.14.22.24.4.33.2.08.4.12.63.12.2 0 .38-.03.54-.1a.75.75 0 0 0 .34-.25.62.62 0 0 0 0-.7.81.81 0 0 0-.35-.25 6.9 6.9 0 0 0-.72-.2c-.37-.1-.63-.19-.78-.27a.98.98 0 0 1-.57-.91 1.1 1.1 0 0 1 .68-1.01c.22-.1.46-.15.74-.15.3 0 .56.05.79.15.23.1.4.25.52.45.13.19.2.41.2.66l-.51.04a.87.87 0 0 0-.28-.6c-.16-.14-.4-.2-.7-.2-.33 0-.56.05-.7.18a.56.56 0 0 0-.23.44c0 .15.05.28.16.37.1.1.37.2.8.3.44.1.73.2.9.27a1.07 1.07 0 0 1 .69 1.02c0 .23-.07.44-.2.63-.11.2-.3.36-.52.46a2.24 2.24 0 0 1-1.7 0 1.3 1.3 0 0 1-.58-.5 1.45 1.45 0 0 1-.22-.75z" id="PASS" fill="#EEC55B"/><path d="M5.36 21.96v-4.19h.55l2.12 3.3v-3.3h.51v4.2h-.55l-2.12-3.3v3.3h-.5zm3.91-2.04c0-.7.18-1.24.54-1.63.36-.4.83-.6 1.4-.6.37 0 .7.1 1 .28.3.19.53.45.69.78.15.33.23.7.23 1.12 0 .43-.08.8-.24 1.14-.17.34-.4.6-.7.77a1.95 1.95 0 0 1-2-.03c-.3-.2-.53-.45-.68-.78a2.44 2.44 0 0 1-.24-1.05zm.56.01c0 .5.13.9.39 1.2.26.29.59.43.98.43.4 0 .73-.15 1-.44.25-.3.38-.71.38-1.25 0-.34-.05-.64-.16-.9a1.28 1.28 0 0 0-1.2-.8c-.39 0-.71.14-.99.41-.27.27-.4.72-.4 1.35zm4 2.03v-4.19h1.79c.36 0 .63.04.82.11.19.08.34.21.45.4.1.2.16.4.16.64 0 .3-.09.54-.27.75-.19.2-.47.33-.86.39.14.07.25.14.32.2.16.15.3.34.44.56l.7 1.14h-.67l-.53-.87a7.97 7.97 0 0 0-.39-.58c-.1-.13-.19-.22-.27-.28a.79.79 0 0 0-.24-.1 1.54 1.54 0 0 0-.3-.03h-.62v1.86h-.53zm.53-2.34h1.15c.25 0 .44-.02.57-.08a.61.61 0 0 0 .32-.25.7.7 0 0 0 .1-.37c0-.2-.06-.37-.2-.5-.14-.12-.36-.19-.66-.19h-1.28v1.4zm5.42.7v-.5h1.7v1.56a3 3 0 0 1-.8.5 2.33 2.33 0 0 1-1.94-.1A1.72 1.72 0 0 1 18 21a2.68 2.68 0 0 1 0-2.26c.17-.36.4-.62.71-.8.31-.16.66-.25 1.07-.25.29 0 .55.05.79.15.23.1.42.23.55.4.14.18.24.41.3.7l-.47.13a1.58 1.58 0 0 0-.23-.5.93.93 0 0 0-.38-.3 1.58 1.58 0 0 0-1.19 0c-.18.09-.32.19-.43.32-.11.12-.2.26-.26.41-.1.26-.15.54-.15.84 0 .38.06.69.18.94.13.25.3.44.54.56.24.12.5.19.76.19.23 0 .45-.05.67-.14.23-.1.4-.2.5-.3v-.78h-1.18zm2.5 1.64v-4.19h2.92v.5h-2.38v1.28h2.23v.5h-2.23v1.42h2.48v.5h-3.01z" id="NORGE" fill="#EEC55B"/><path d="M17.38 8.79H13.4v.4c0 .59.12 1.8.33 2.3a4.1 4.1 0 0 0 1.83 2.03 4.1 4.1 0 0 0 1.83-2.02c.22-.51.34-1.72.34-2.32v-.4h-.34z" id="Fill-3" fill="#EEC55B"/></g></g><path d="M32.68 32.64h2.6c1.48 0 2.7-1.38 2.7-3.06 0-1.68-1.22-3.06-2.7-3.06h-2.6c-1.48 0-2.7 1.38-2.7 3.06 0 1.68 1.22 3.06 2.7 3.06" id="Fill-1" fill="#E7E5E2"/><g id="Group-5" transform="translate(26.98 19.38)"><mask id="mask-8" fill="#fff"><use xlink:href="#path-7"/></mask><path d="M3.58 6.74h4.27a3.06 3.06 0 0 0 0-6.1H3.58a3.06 3.06 0 0 0 0 6.1" id="Fill-3" fill="#E7E5E2" mask="url(#mask-8)"/></g><path d="M35.1 18.36c1.58 0 2.88-1.38 2.88-3.06 0-1.68-1.3-3.06-2.88-3.06h-4.24c-1.58 0-2.88 1.38-2.88 3.06 0 1.68 1.3 3.06 2.88 3.06h4.24z" id="Fill-6" fill="#E7E5E2"/><g id="Group-10" transform="translate(28.98 5.1)"><mask id="mask-10" fill="#fff"><use xlink:href="#path-9"/></mask><path d="M3.46 6.58h2.41a3.05 3.05 0 0 0 3.02-3.05A3.05 3.05 0 0 0 5.87.48h-2.4A3.05 3.05 0 0 0 .43 3.53a3.05 3.05 0 0 0 3.02 3.05" id="Fill-8" fill="#E7E5E2" mask="url(#mask-10)"/></g><g id="Group-13" transform="translate(0 5.1)"><mask id="mask-12" fill="#fff"><use xlink:href="#path-11"/></mask><path d="M6.4 34.68s-9.96-1.36-5.03-20.32c-.54-.5 0-14.04 0-14.04S6.41-.8 7.16 3.79s.53 10.57.53 10.57-.1 2.07-1.28 3.08c.1.23 0 17.24 0 17.24" id="Fill-11" fill="#E7E5E2" mask="url(#mask-12)"/></g></g><path d="M78 180.22h135" id="Stroke-12-Copy-3" stroke="#585B5C" stroke-width="4.8" stroke-linecap="round" stroke-linejoin="round"/></g></g></g></svg>